<?xml version="1.0" encoding="UTF-8" standalone="no"?>
<!-- Created with Inkscape (http://www.inkscape.org/) -->

<svg
   width="200"
   height="50"
   viewBox="0 0 52.916665 13.229167"
   version="1.1"
   id="svg1"
   inkscape:version="1.4.2 (ebf0e940d0, 2025-05-08)"
   sodipodi:docname="logotype.svg"
   xmlns:inkscape="http://www.inkscape.org/namespaces/inkscape"
   xmlns:sodipodi="http://sodipodi.sourceforge.net/DTD/sodipodi-0.dtd"
   xmlns="http://www.w3.org/2000/svg"
   xmlns:svg="http://www.w3.org/2000/svg">
  <sodipodi:namedview
     id="namedview1"
     pagecolor="#505050"
     bordercolor="#eeeeee"
     borderopacity="1"
     inkscape:showpageshadow="0"
     inkscape:pageopacity="0"
     inkscape:pagecheckerboard="0"
     inkscape:deskcolor="#505050"
     inkscape:document-units="px"
     inkscape:zoom="2.4945156"
     inkscape:cx="82.781603"
     inkscape:cy="63.138511"
     inkscape:window-width="1366"
     inkscape:window-height="697"
     inkscape:window-x="0"
     inkscape:window-y="0"
     inkscape:window-maximized="1"
     inkscape:current-layer="layer1" />
  <defs
     id="defs1">
    <filter
       style="color-interpolation-filters:sRGB;"
       inkscape:label="Blur"
       id="filter53"
       x="-0.059827609"
       y="-0.24767622"
       width="1.1196552"
       height="1.4953524">
      <feGaussianBlur
         stdDeviation="1.26657 1.14015"
         result="blur"
         id="feGaussianBlur53" />
    </filter>
  </defs>
  <g
     inkscape:label="Camada 1"
     inkscape:groupmode="layer"
     id="layer1">
    <rect
       style="fill:#ffffff;stroke:none;stroke-width:4.99435;stroke-linecap:butt;stroke-linejoin:miter;stroke-dasharray:none"
       id="rect1"
       width="52.200783"
       height="12.842151"
       x="0.23195763"
       y="0.23650712"
       ry="0"
       rx="0" />
    <path
       id="ellipse33"
       style="fill:#000000;fill-opacity:0.60074162;stroke:none;stroke-width:0.912738;stroke-linecap:butt;stroke-linejoin:miter;stroke-dasharray:none;filter:url(#filter53)"
       d="m 31.979804,2.0328722 c -0.380259,0.0036 -0.70487,0.160562 -0.982369,0.334346 0.149812,2.572812 0.166854,5.081582 0.09974,7.5494101 -0.648125,0.1415267 -1.236882,0.1112097 -1.789555,-0.02274 -0.0418,-1.8718931 -0.03501,-3.7191441 0.08268,-5.5112911 -0.647749,-0.354595 -1.330328,-0.472668 -2.101163,0 -0.329666,5.3166541 -0.320306,7.9473598 0,8.1142328 1.708051,0.596605 3.970918,0.940577 5.680273,0.0031 h 0.0026 c 4.3e-5,-4.96e-4 -4.3e-5,-0.0011 0,-0.0016 0.0011,-6.1e-4 0.0025,-9.4e-4 0.0036,-0.0016 l 0.0015,-0.09663 C 33.241978,9.2107812 33.0282,5.7429312 32.97191,2.3671212 32.605054,2.1200022 32.27548,2.0299912 31.979722,2.0327752 Z m -10.919747,0.03359 a 5.0625,5.2124996 0 0 0 -0.128674,0.0031 v 0.0041 a 5.0625,5.2124996 0 0 0 -4.933549,5.205367 5.0625,5.2124996 0 0 0 4.685502,5.1872798 v 0.0083 h 0.123507 a 5.0625,5.2124996 0 0 0 0.253214,0.01705 5.0625,5.2124996 0 0 0 0.407211,-0.01705 h 4.784204 c 0.353507,-0.552647 0.763199,-1.072375 0,-2.28048 H 25.2567 a 5.0625,5.2124996 0 0 0 0.823206,-2.2401738 h 0.03772 a 5.0625,5.2124996 0 0 0 0.04237,-0.674894 5.0625,5.2124996 0 0 0 -5.062223,-5.212602 5.0625,5.2124996 0 0 0 -0.03462,0 5.0625,5.2124996 0 0 0 -0.0031,0 z m 15.562875,0.08888 v 2.439644 h 2.853572 v 7.9545528 h 2.815332 V 4.5949862 h 3.028239 v -2.439644 z m -24.142196,0.306958 -5.17e-4,0.01137 h -1.789554 v 8.9622428 h 1.80299 V 7.7989262 l 0.697632,3.7057168 0.699699,-0.03101 H 15.56892 V 3.2607042 h -1.802991 v 3.798734 l -1.272274,-4.551143 v -0.03462 h -0.0098 z m -11.76000496,0.06408 v 0.02635 h -0.053227 v 6.443535 2.3869338 0.0016 H 4.6233349 v -0.0016 H 9.4178745 V 8.9962652 H 4.6233351 v -0.7953 H 8.6225742 V 5.8145532 H 4.6233351 V 4.9127992 H 10.001301 V 2.5263822 Z M 33.462918,4.7536342 v 0.02377 h -0.02119 v 5.6720048 2.100647 0.0015 h 1.573547 v -0.0015 h 1.90686 v -2.100647 h -1.90686 V 9.7491933 h 1.5906 V 7.6480302 h -1.5906 v -0.793234 h 2.138887 v -2.101163 z m 10.17974,0.248047 v 2.002461 h 4.687569 v 0.756543 h -3.530533 v 2.0024621 h 3.530533 V 10.43029 h -4.198193 v 2.002462 h 4.198193 v 0.0021 h 3.130559 v -0.0021 h 0.0155 V 10.43029 h -0.0155 V 5.0094322 h -0.02894 v -0.0078 z" />
    <g
       id="g33">
      <ellipse
         style="fill:#1641ff;fill-opacity:1;stroke:none;stroke-width:0.912738;stroke-linecap:butt;stroke-linejoin:miter;stroke-dasharray:none"
         id="path7"
         cx="21.24118"
         cy="6.7125001"
         rx="5.0625"
         ry="5.2124996" />
      <rect
         style="fill:#1641ff;fill-opacity:1;stroke:none;stroke-width:1.08285;stroke-linecap:butt;stroke-linejoin:miter;stroke-dasharray:none"
         id="rect10"
         width="1.8031218"
         height="8.9625788"
         x="10.871767"
         y="1.9068615" />
      <rect
         style="fill:#1641ff;fill-opacity:1;stroke:none;stroke-width:1.03655;stroke-linecap:butt;stroke-linejoin:miter;stroke-dasharray:none"
         id="rect11"
         width="1.8031218"
         height="8.2125788"
         x="13.946767"
         y="2.6943614" />
      <path
         style="fill:#1641ff;fill-opacity:1;stroke:none;stroke-width:1.68521;stroke-linecap:butt;stroke-linejoin:miter;stroke-dasharray:none"
         d="m 12.661631,1.89593 2.505809,8.962578 -1.795246,0.07955 -0.932015,-4.9519589 z"
         id="path11"
         sodipodi:nodetypes="ccccc" />
      <path
         id="ellipse11"
         style="fill:#4a6eff;stroke-width:0.912738;fill-opacity:1"
         d="m 21.278764,1.4998739 a 5.0625,5.2124996 0 0 0 -0.166398,0.0031 v 5.8843954 h 5.186246 a 5.0625,5.2124996 0 0 0 0.04237,-0.6748942 5.0625,5.2124996 0 0 0 -5.062223,-5.2126017 z" />
      <path
         id="rect12"
         style="fill:#1641ff;stroke-width:0.959872"
         d="m 20.864216,9.6277142 h 5.568465 c 0.763199,1.2081048 0.353507,1.7277728 0,2.2804198 h -5.568465 z"
         sodipodi:nodetypes="ccccc" />
      <path
         id="rect13"
         style="fill:#1641ff;stroke-width:1.11228;stroke-dasharray:none;paint-order:normal"
         d="m 27.469934,3.8160498 c 0.770835,-0.4726675 1.453777,-0.3545943 2.101526,0 -0.171978,2.618695 -0.107649,5.3555428 0,8.1140512 h -2.101526 c -0.320306,-0.166873 -0.329666,-2.7973971 0,-8.1140512 z"
         sodipodi:nodetypes="ccccc" />
      <path
         id="rect14"
         style="fill:#1641ff;stroke-width:1.20481"
         d="m 31.17851,1.8009013 c 0.493331,-0.3089505 1.135921,-0.5648439 1.974449,0 0.05683,3.4105101 0.277666,6.9162618 0,10.1325137 H 31.17851 c 0.162079,-3.2990658 0.202371,-6.6570708 0,-10.1325137 z"
         sodipodi:nodetypes="ccccc" />
      <path
         id="rect15"
         style="fill:#1641ff;stroke-width:1.14143"
         d="m 27.469934,8.4299212 c 1.59994,0.930113 3.258211,1.6918868 5.748292,0.053033 L 33.156417,11.9301 c -1.710065,0.941607 -3.976418,0.59731 -5.686483,0 z"
         sodipodi:nodetypes="ccccc" />
      <rect
         style="fill:#1641ff;fill-opacity:1;stroke:none;stroke-width:1.43851;stroke-linecap:butt;stroke-linejoin:miter;stroke-dasharray:none"
         id="rect20"
         width="2.8156219"
         height="10.129305"
         x="39.657326"
         y="1.8538284" />
      <rect
         style="fill:#1641ff;fill-opacity:1;stroke:none;stroke-width:1.24074;stroke-linecap:butt;stroke-linejoin:miter;stroke-dasharray:none"
         id="rect21"
         width="8.6974125"
         height="2.4395187"
         x="36.803745"
         y="1.5886633" />
      <rect
         style="fill:#1641ff;fill-opacity:1;stroke:none;stroke-width:1.06383;stroke-linecap:butt;stroke-linejoin:miter;stroke-dasharray:none"
         id="rect22"
         width="7.7892985"
         height="2.0025034"
         x="-51.612827"
         y="4.4348946"
         transform="scale(-1,1)" />
      <rect
         style="fill:#1641ff;fill-opacity:1;stroke:none;stroke-width:0.978328;stroke-linecap:butt;stroke-linejoin:miter;stroke-dasharray:none"
         id="rect23"
         width="6.5875211"
         height="2.0025034"
         x="-51.568317"
         y="7.1938987"
         transform="scale(-1,1)" />
      <rect
         style="fill:#1641ff;fill-opacity:1;stroke:none;stroke-width:1.03299;stroke-linecap:butt;stroke-linejoin:miter;stroke-dasharray:none"
         id="rect24"
         width="7.3441963"
         height="2.0025034"
         x="-51.657337"
         y="9.863903"
         transform="scale(-1,1)" />
      <g
         id="g28">
        <rect
           style="fill:#1641ff;fill-opacity:1;stroke:none;stroke-width:1.26768;stroke-linecap:butt;stroke-linejoin:miter;stroke-dasharray:none"
           id="rect7"
           width="9.280776"
           height="2.3864853"
           x="0.90156114"
           y="1.9598945" />
        <rect
           style="fill:#1641ff;fill-opacity:1;stroke:none;stroke-width:1.16579;stroke-linecap:butt;stroke-linejoin:miter;stroke-dasharray:none"
           id="rect8"
           width="7.8488846"
           height="2.3864853"
           x="0.95459414"
           y="5.247941" />
        <rect
           style="fill:#1641ff;fill-opacity:1;stroke:none;stroke-width:1.23093;stroke-linecap:butt;stroke-linejoin:miter;stroke-dasharray:none"
           id="rect9"
           width="8.7504463"
           height="2.3864853"
           x="0.84852815"
           y="8.4299212" />
        <rect
           style="fill:#1641ff;fill-opacity:1;stroke:none;stroke-width:1.59215;stroke-linecap:butt;stroke-linejoin:miter;stroke-dasharray:none"
           id="rect27"
           width="3.955776"
           height="8.8319359"
           x="0.84852815"
           y="1.9864111" />
      </g>
      <rect
         style="fill:#1641ff;fill-opacity:1;stroke:none;stroke-width:1.29877;stroke-linecap:butt;stroke-linejoin:miter;stroke-dasharray:none"
         id="rect28"
         width="3.1307759"
         height="7.4256859"
         x="48.511028"
         y="4.4426613" />
      <g
         id="g32"
         transform="matrix(0.39772724,0,0,0.88026575,33.285444,2.4620528)">
        <rect
           style="fill:#1641ff;fill-opacity:1;stroke:none;stroke-width:1.26768;stroke-linecap:butt;stroke-linejoin:miter;stroke-dasharray:none"
           id="rect29"
           width="9.280776"
           height="2.3864853"
           x="0.90156114"
           y="1.9598945" />
        <rect
           style="fill:#1641ff;fill-opacity:1;stroke:none;stroke-width:1.16579;stroke-linecap:butt;stroke-linejoin:miter;stroke-dasharray:none"
           id="rect30"
           width="7.8488846"
           height="2.3864853"
           x="0.95459414"
           y="5.247941" />
        <rect
           style="fill:#1641ff;fill-opacity:1;stroke:none;stroke-width:1.23093;stroke-linecap:butt;stroke-linejoin:miter;stroke-dasharray:none"
           id="rect31"
           width="8.7504463"
           height="2.3864853"
           x="0.84852815"
           y="8.4299212" />
        <rect
           style="fill:#1641ff;fill-opacity:1;stroke:none;stroke-width:1.59215;stroke-linecap:butt;stroke-linejoin:miter;stroke-dasharray:none"
           id="rect32"
           width="3.955776"
           height="8.8319359"
           x="0.84852815"
           y="1.9864111" />
      </g>
    </g>
  </g>
</svg>
